<svg xmlns="http://www.w3.org/2000/svg" width="1920" height="292" viewBox="0 0 1920 292">
  <g id="Component_5_4" data-name="Component 5 – 4">
    <g id="Rectangle_268" data-name="Rectangle 268" fill="#f3f2f3" stroke="#707070" stroke-width="1">
      <rect width="1920" height="292" stroke="none"/>
      <rect x="0.5" y="0.5" width="1919" height="291" fill="none"/>
    </g>
    <text id="Just_click_below_to_answer_a_few_questions" data-name="Just click below to answer a few questions" transform="translate(441 91)" fill="#4e4e4e" font-size="16" font-family="ProximaNova-Regular, Proxima Nova"><tspan x="0" y="13">Just click below to answer a few questions</tspan></text>
    <text id="Recources" transform="translate(1155 49)" fill="#4e4e4e" font-size="16" font-family="ProximaNova-Regular, Proxima Nova"><tspan x="0" y="13">RECOURCES</tspan></text>
    <text id="Loankart" transform="translate(953 49)" fill="#4e4e4e" font-size="16" font-family="ProximaNova-Regular, Proxima Nova"><tspan x="0" y="13">LOANKART</tspan></text>
    <a href="#home"><text id="Home" transform="translate(953 91)" fill="#4e4e4e" font-size="14" font-family="ProximaNova-Regular, Proxima Nova"><tspan x="0" y="11">Home</tspan></text></a>
    <text id="Apply_now" data-name="Apply now" transform="translate(1155 91)" fill="#4e4e4e" font-size="14" font-family="ProximaNova-Regular, Proxima Nova"><tspan x="0" y="11">Apply now</tspan></text>
    <text id="Email_:-_xyz_loankart.com" data-name="Email :- xyz@loankart.com" transform="translate(1365 91)" fill="#4e4e4e" font-size="14" font-family="ProximaNova-Regular, Proxima Nova"><tspan x="0" y="11">Email :- xyz@loankart.com</tspan></text>
    <text id="License" transform="translate(953 121)" fill="#4e4e4e" font-size="14" font-family="ProximaNova-Regular, Proxima Nova"><tspan x="0" y="11">License</tspan></text>
    <text id="Login" transform="translate(1155 121)" fill="#4e4e4e" font-size="14" font-family="ProximaNova-Regular, Proxima Nova"><tspan x="0" y="11">Login</tspan></text>
    <text id="Phone_:-_9999999999" data-name="Phone :- 9999999999" transform="translate(1365 121)" fill="#4e4e4e" font-size="14" font-family="ProximaNova-Regular, Proxima Nova"><tspan x="0" y="11">Phone :- 9999999999</tspan></text>
    <text id="Join_our_team" data-name="Join our team" transform="translate(953 151)" fill="#4e4e4e" font-size="14" font-family="ProximaNova-Regular, Proxima Nova"><tspan x="0" y="11">Join our team</tspan></text>
    <text id="Address_:-_abc_road_Haryana_India" data-name="Address :-  abc road, Haryana, India" transform="translate(1365 151)" fill="#4e4e4e" font-size="14" font-family="ProximaNova-Regular, Proxima Nova"><tspan x="0" y="11" xml:space="preserve">Address :-  abc road, Haryana, India</tspan></text>
    <text id="Contact_us" data-name="Contact us" transform="translate(1365 49)" fill="#4e4e4e" font-size="16" font-family="ProximaNova-Regular, Proxima Nova"><tspan x="0" y="13">CONTACT US</tspan></text>
    <g id="Group_3018" data-name="Group 3018" transform="translate(2464.212 -6519.574)">
      <path id="Icon_simple-facebook" data-name="Icon simple-facebook" d="M25.079,12.539a12.539,12.539,0,1,0-14.5,12.387V16.164H7.4V12.539H10.58V9.777c0-3.143,1.872-4.879,4.736-4.879a19.284,19.284,0,0,1,2.807.245V8.229H16.542A1.812,1.812,0,0,0,14.5,10.187v2.352h3.478l-.556,3.625H14.5v8.762A12.543,12.543,0,0,0,25.079,12.539Z" transform="translate(-2023.212 6668.111)" fill="#2d2d2d"/>
      <g id="Icon_feather-instagram" data-name="Icon feather-instagram" transform="translate(-1964.869 6670.124)">
        <path id="Path_2875" data-name="Path 2875" d="M8.225,3h10.45A5.225,5.225,0,0,1,23.9,8.225v10.45A5.225,5.225,0,0,1,18.676,23.9H8.225A5.225,5.225,0,0,1,3,18.676V8.225A5.225,5.225,0,0,1,8.225,3Z" transform="translate(-3 -3)" fill="none" stroke="#000" stroke-linecap="round" stroke-linejoin="round" stroke-width="2"/>
        <path id="Path_2876" data-name="Path 2876" d="M20.38,15.5a4.18,4.18,0,1,1-3.522-3.522A4.18,4.18,0,0,1,20.38,15.5Z" transform="translate(-5.749 -5.71)" fill="none" stroke="#000" stroke-linecap="round" stroke-linejoin="round" stroke-width="2"/>
        <path id="Path_2877" data-name="Path 2877" d="M26.25,9.75h0" transform="translate(-10.052 -5.047)" fill="none" stroke="#000" stroke-linecap="round" stroke-linejoin="round" stroke-width="2"/>
      </g>
      <path id="Icon_ionic-logo-twitter" data-name="Icon ionic-logo-twitter" d="M24.53,6.729a9.588,9.588,0,0,1-2.724.749,4.759,4.759,0,0,0,2.087-2.626A9.424,9.424,0,0,1,20.88,6a4.741,4.741,0,0,0-8.205,3.243,4.643,4.643,0,0,0,.122,1.083A13.44,13.44,0,0,1,3.02,5.367a4.752,4.752,0,0,0,1.474,6.339,4.632,4.632,0,0,1-2.155-.593v.059a4.747,4.747,0,0,0,3.806,4.654,4.774,4.774,0,0,1-1.249.167A4.474,4.474,0,0,1,4,15.9a4.75,4.75,0,0,0,4.433,3.3,9.509,9.509,0,0,1-5.893,2.033,9.614,9.614,0,0,1-1.132-.069,13.257,13.257,0,0,0,7.26,2.146A13.414,13.414,0,0,0,22.178,9.8c0-.206,0-.411-.015-.612A9.654,9.654,0,0,0,24.53,6.729Z" transform="translate(-1911.704 6666.669)" fill="#2d2d2d"/>
    </g>
    <text id="Copyright_2022" data-name="Copyright 2022" transform="translate(1306 240)" fill="#4e4e4e" font-size="24" font-family="ProximaNova-Regular, Proxima Nova"><tspan x="0" y="19">Copyright 2022</tspan></text>
  </g>
  <g id="logo" transform="translate(404 32.5)">
    <text id="LOANKART-2" data-name="LOANKART" transform="translate(38.895 34)" fill="#404040" font-size="32" font-family="OpenSans-Semibold, Open Sans" font-weight="600"><tspan x="0" y="0">LOANKART</tspan></text>
    <g id="Group_1" data-name="Group 1" transform="translate(129.49 117.928)" style="mix-blend-mode: darken;isolation: isolate">
      <path id="Path_3" data-name="Path 3" d="M14.366,0H24.574L9.728,27.89H-.521Z" transform="translate(-128.968 -110.373)" fill="#4cbd7e"/>
      <path id="Path_4" data-name="Path 4" d="M10.066,0h6.672L5.675,22.189H-1.582Z" transform="translate(-111.581 -104.672)" fill="#4cbd7e"/>
    </g>
  </g>
</svg>
